<svg width="297" height="128" viewBox="0 0 297 128" fill="none" xmlns="http://www.w3.org/2000/svg">
<g clip-path="url(#clip0_668_3511)">
<path d="M100 50.0021C100 43.7779 96.3104 38.0334 90.0734 33.4013C91.2071 25.7207 89.755 19.0464 85.3522 14.6436C80.9493 10.2407 74.2793 8.78869 66.5945 9.9223C61.9709 3.68955 56.2264 0 50.0021 0C43.7779 0 38.0334 3.68955 33.4013 9.92655C25.7207 8.79293 19.0464 10.245 14.6436 14.6478C10.2407 19.0507 8.78869 25.7207 9.9223 33.4055C3.68955 38.0291 0 43.7779 0 50.0021C0 56.2264 3.68955 61.9709 9.92655 66.603C8.79293 74.2835 10.245 80.9578 14.6478 85.3607C19.0507 89.7635 25.7207 91.2156 33.4055 90.0819C38.0334 96.3147 43.7821 100.008 50.0064 100.008C56.2306 100.008 61.9751 96.3189 66.6072 90.0819C74.2878 91.2156 80.9621 89.7635 85.3649 85.3607C89.7678 80.9578 91.2198 74.2878 90.0862 66.603C96.3189 61.9751 100.013 56.2264 100.013 50.0021H100Z" fill="#E94E3B"/>
<ellipse cx="58.5306" cy="46.6314" rx="11.034" ry="14" fill="white"/>
<ellipse cx="62.2085" cy="45.0645" rx="5.88482" ry="7" fill="#231F20"/>
<ellipse cx="42.347" cy="46.6314" rx="11.034" ry="14" fill="white"/>
<ellipse cx="46.0254" cy="45.0645" rx="5.88482" ry="7" fill="#231F20"/>
</g>
<path d="M32.3281 110.328V117.609H30.8594V115.938H27.7969V117.094H21.3438V110.969H22.8281V112.859H26.3281V110.969H27.7969V112.25H30.8594V110.328H32.3281ZM22.8281 115.906H26.3281V114H22.8281V115.906ZM23.1719 119.391V118.234H32.3281V121.672H24.6875V122.969H32.8281V124.156H23.2031V120.562H30.8594V119.391H23.1719ZM27.7969 114.797H30.8594V113.391H27.7969V114.797ZM47.3125 121.406V122.656H34.5V121.406H40.1406V118.953H36.0625V114.5H44.2812V112.531H36.0312V111.312H45.75V115.688H37.5312V117.734H46.0781V118.953H41.6094V121.406H47.3125ZM60.375 110.328V124.328H58.9531V110.328H60.375ZM48.4844 116.375C48.4844 113.344 49.6719 111.445 51.5 111.453C53.2031 111.445 54.3516 113.062 54.5234 115.688H56.1094V110.594H57.5312V123.641H56.1094V116.891H54.5312C54.3984 119.625 53.2344 121.32 51.5 121.312C49.6719 121.32 48.4844 119.414 48.4844 116.375ZM49.8594 116.375C49.8594 118.602 50.4922 119.914 51.5 119.906C52.5312 119.914 53.1719 118.602 53.1719 116.375C53.1719 114.141 52.5312 112.836 51.5 112.844C50.4922 112.836 49.8594 114.141 49.8594 116.375ZM74.9688 121.344V122.578H62.1562V121.344H65.2188V117.688C64.0703 117.055 63.3672 116.055 63.375 114.797C63.3672 112.594 65.5312 111.148 68.5312 111.141C71.5391 111.148 73.7031 112.594 73.7031 114.797C73.7031 116.031 73.0312 117.023 71.9062 117.656V121.344H74.9688ZM64.8125 114.797C64.8125 116.297 66.3359 117.273 68.5312 117.281C70.7109 117.273 72.2578 116.297 72.2656 114.797C72.2578 113.289 70.7109 112.328 68.5312 112.328C66.3359 112.328 64.8125 113.289 64.8125 114.797ZM66.6875 121.344H70.4062V118.234C69.8359 118.367 69.2031 118.438 68.5312 118.438C67.875 118.438 67.25 118.367 66.6875 118.234V121.344ZM78.5625 111.688L78.4219 119.734H76.875L76.7344 111.688H78.5625ZM76.5469 122C76.5391 121.391 77.0469 120.891 77.6562 120.891C78.2578 120.891 78.7578 121.391 78.7656 122C78.7578 122.609 78.2578 123.102 77.6562 123.109C77.0469 123.102 76.5391 122.609 76.5469 122Z" fill="#E5E5E5"/>
<path d="M148.398 60.5156L145.32 69H143.523L140.445 60.5156H142.242L144.383 67.0312H144.461L146.602 60.5156H148.398ZM154.523 62.8281C154.367 62.1562 153.836 61.7188 152.914 61.7188C151.961 61.7188 151.281 62.2109 151.289 62.8594C151.281 63.3594 151.68 63.7188 152.617 63.9375L153.961 64.25C155.523 64.6016 156.281 65.3438 156.289 66.5469C156.281 68.0781 154.984 69.1719 152.82 69.1719C150.781 69.1719 149.578 68.2656 149.367 66.6875H151.07C151.219 67.4531 151.797 67.8359 152.805 67.8281C153.883 67.8359 154.578 67.3828 154.586 66.6719C154.578 66.125 154.172 65.7734 153.273 65.5625L151.945 65.2812C150.414 64.9453 149.617 64.125 149.617 62.9531C149.617 61.4453 150.93 60.4062 152.898 60.4062C154.789 60.4062 155.969 61.3672 156.133 62.8281H154.523Z" fill="#858386"/>
<path fill-rule="evenodd" clip-rule="evenodd" d="M288.325 50C293.799 44.8698 297 38.6678 297 31.9876C297 14.3213 274.614 0 247 0C219.386 0 197 14.3213 197 31.9876C197 38.6678 200.201 44.8698 205.675 50C200.201 55.1302 197 61.3322 197 68.0124C197 85.6787 219.386 100 247 100C274.614 100 297 85.6787 297 68.0124C297 61.3322 293.799 55.1302 288.325 50Z" fill="#1B76FF"/>
<ellipse cx="11.0692" cy="13.2006" rx="11.0692" ry="13.2006" transform="matrix(-1 0 0 1 242.85 30.7358)" fill="white"/>
<ellipse cx="5.9036" cy="6.6003" rx="5.9036" ry="6.6003" transform="matrix(-1 0 0 1 233.995 33.6694)" fill="#231F20"/>
<ellipse cx="11.0692" cy="13.2006" rx="11.0692" ry="13.2006" transform="matrix(-1 0 0 1 259.084 30.7358)" fill="white"/>
<ellipse cx="5.9036" cy="6.6003" rx="5.9036" ry="6.6003" transform="matrix(-1 0 0 1 250.229 33.6694)" fill="#231F20"/>
<path d="M222.852 110.328V124.328H221.43V117.141H219.758V123.641H218.352V110.594H219.758V115.891H221.43V110.328H222.852ZM210.57 120.375C212.617 119.227 213.57 116.812 213.57 114.031V113.125H210.945V111.922H217.445V113.125H215.008V114.031C215.008 116.547 215.953 118.828 217.992 119.875L217.117 121.016C215.742 120.266 214.82 118.961 214.32 117.352C213.844 119.188 212.922 120.656 211.492 121.5L210.57 120.375ZM229.445 119.609C229.445 120.812 230.039 122.086 231.312 122.844C232.594 122.023 233.227 120.688 233.227 119.609V118.812H234.68V119.609C234.672 121.062 235.633 122.469 237.461 123.047L236.727 124.156C235.344 123.68 234.406 122.75 233.914 121.602C233.469 122.727 232.633 123.75 231.352 124.281C230.008 123.773 229.156 122.789 228.727 121.641C228.219 122.75 227.297 123.672 225.977 124.156L225.227 123.047C227.023 122.422 228 120.961 228.008 119.609V118.812H229.445V119.609ZM225.32 117.375V111.234H231.977V117.375H225.32ZM226.773 116.188H230.508V112.438H226.773V116.188ZM234.711 118.344V110.344H236.195V118.344H234.711ZM243.383 119.562C243.383 120.773 243.984 122.047 245.25 122.82C246.531 121.984 247.141 120.625 247.148 119.562V118.812H248.602V119.562C248.602 121.008 249.555 122.445 251.414 123.031L250.648 124.141C249.273 123.648 248.336 122.711 247.852 121.555C247.406 122.68 246.57 123.727 245.273 124.266C243.945 123.758 243.094 122.766 242.656 121.617C242.156 122.719 241.227 123.648 239.914 124.141L239.195 123.031C240.984 122.406 241.945 120.922 241.961 119.562V118.812H243.383V119.562ZM238.633 114.406C238.625 112.469 240.18 111.094 242.289 111.094C244.102 111.094 245.539 112.164 245.859 113.75H248.602V110.328H250.086V118.266H248.602V114.969H245.883C245.594 116.594 244.141 117.703 242.289 117.703C240.18 117.703 238.625 116.336 238.633 114.406ZM240.055 114.406C240.047 115.617 240.992 116.469 242.289 116.469C243.555 116.469 244.5 115.617 244.508 114.406C244.5 113.172 243.555 112.336 242.289 112.344C240.992 112.336 240.047 113.172 240.055 114.406ZM256.039 111.375C257.945 111.383 259.328 112.992 259.555 115.578H262.445V110.328H263.914V124.359H262.445V116.781H259.57C259.406 119.516 257.992 121.211 256.039 121.203C253.953 121.211 252.477 119.305 252.492 116.281C252.477 113.289 253.953 111.383 256.039 111.375ZM253.898 116.281C253.906 118.508 254.773 119.875 256.039 119.875C257.305 119.875 258.172 118.508 258.18 116.281C258.172 114.086 257.305 112.711 256.039 112.703C254.773 112.711 253.906 114.086 253.898 116.281ZM278.883 121.344V122.578H266.07V121.344H269.133V117.688C267.984 117.055 267.281 116.055 267.289 114.797C267.281 112.594 269.445 111.148 272.445 111.141C275.453 111.148 277.617 112.594 277.617 114.797C277.617 116.031 276.945 117.023 275.82 117.656V121.344H278.883ZM268.727 114.797C268.727 116.297 270.25 117.273 272.445 117.281C274.625 117.273 276.172 116.297 276.18 114.797C276.172 113.289 274.625 112.328 272.445 112.328C270.25 112.328 268.727 113.289 268.727 114.797ZM270.602 121.344H274.32V118.234C273.75 118.367 273.117 118.438 272.445 118.438C271.789 118.438 271.164 118.367 270.602 118.234V121.344ZM282.477 111.688L282.336 119.734H280.789L280.648 111.688H282.477ZM280.461 122C280.453 121.391 280.961 120.891 281.57 120.891C282.172 120.891 282.672 121.391 282.68 122C282.672 122.609 282.172 123.102 281.57 123.109C280.961 123.102 280.453 122.609 280.461 122Z" fill="#E5E5E5"/>
<defs>
<clipPath id="clip0_668_3511">
<rect width="100" height="100" fill="white"/>
</clipPath>
</defs>
</svg>
